<?xml version="1.0" standalone="no"?>
<!DOCTYPE svg PUBLIC "-//W3C//DTD SVG 20010904//EN"
 "http://www.w3.org/TR/2001/REC-SVG-20010904/DTD/svg10.dtd">
<svg version="1.0" xmlns="http://www.w3.org/2000/svg"
 width="288.000000pt" height="288.000000pt" viewBox="0 0 288.000000 288.000000"
 preserveAspectRatio="xMidYMid meet">

<g transform="translate(0.000000,288.000000) scale(0.100000,-0.100000)"
fill="#000000" stroke="none">
<path d="M1155 2226 c-59 -25 -125 -84 -125 -113 0 -9 -15 -13 -49 -13 -59 0
-107 -19 -142 -57 -39 -41 -49 -66 -56 -136 l-5 -63 -44 -18 c-90 -37 -142
-121 -116 -188 11 -29 9 -34 -23 -69 -68 -76 -79 -110 -81 -247 -1 -122 -1
-122 -34 -169 -37 -52 -41 -82 -20 -155 13 -44 13 -50 -8 -87 -42 -74 -28
-134 51 -218 29 -31 30 -33 13 -51 -42 -47 -38 -124 10 -181 28 -33 26 -42
-18 -79 -56 -47 -56 -142 -1 -194 58 -55 210 -75 291 -38 49 22 53 35 13 43
-38 8 -55 37 -37 62 12 16 20 17 107 6 58 -7 105 -8 124 -3 95 28 185 109 205
182 10 39 13 41 38 35 56 -14 175 -21 251 -13 148 14 258 65 365 170 69 66 70
67 145 79 207 31 256 90 210 249 -23 80 -23 81 -6 169 22 114 21 166 -3 220
-24 51 -26 110 -5 137 17 23 19 77 4 107 -6 12 -29 41 -51 63 -33 34 -42 54
-54 110 -34 161 -136 284 -237 284 -21 0 -27 5 -27 20 0 28 -33 90 -62 117
-61 57 -163 69 -243 28 l-49 -24 -55 26 c-80 39 -194 43 -276 9z m446 -547
l39 -42 45 42 c58 53 98 56 114 9 15 -43 40 -68 66 -68 13 0 28 -6 34 -14 9
-11 3 -15 -36 -21 -54 -8 -113 -40 -113 -61 0 -18 20 -18 56 1 42 22 92 29
119 17 45 -21 90 -158 101 -308 l7 -89 -21 25 c-15 18 -22 21 -23 10 -3 -32 3
-56 18 -67 13 -10 11 -25 -16 -125 -44 -158 -81 -228 -161 -309 -73 -73 -170
-126 -269 -149 -69 -16 -232 -16 -290 0 l-44 11 6 52 5 52 -71 45 c-90 57
-183 150 -191 192 -9 45 -74 102 -131 117 -144 36 -217 129 -185 234 6 22 25
53 41 68 38 35 116 61 171 57 40 -3 45 -6 66 -48 12 -25 27 -45 33 -45 5 0 23
31 39 69 16 38 31 71 34 74 3 2 29 -5 57 -18 41 -17 57 -20 75 -11 30 14 40
54 26 108 -7 24 -12 47 -12 52 0 5 31 21 68 35 46 18 81 40 108 67 52 54 99
78 153 79 39 0 48 -5 82 -41z m-714 -729 c41 -25 65 -71 65 -128 0 -77 -62
-134 -147 -134 -79 0 -135 59 -135 142 0 83 57 140 140 140 27 0 58 -8 77 -20z"/>
<path d="M1458 1577 c-42 -13 -78 -41 -78 -58 0 -13 23 -9 90 16 49 18 99 14
138 -11 23 -15 52 -13 52 4 0 15 -75 50 -120 56 -25 3 -62 0 -82 -7z"/>
<path d="M1490 1510 c-39 -39 -18 -150 29 -150 10 0 25 8 34 18 19 21 23 92 6
92 -6 0 -8 7 -5 16 7 19 -10 44 -30 44 -8 0 -23 -9 -34 -20z"/>
<path d="M1859 1512 c-44 -36 -24 -152 26 -152 13 0 31 10 39 22 18 25 22 88
5 88 -6 0 -8 8 -4 19 4 14 0 23 -14 30 -25 14 -25 14 -52 -7z"/>
<path d="M1665 1370 c-4 -6 15 -65 41 -131 27 -69 47 -136 46 -155 -2 -41 23
-47 38 -9 10 27 2 60 -50 195 -41 107 -57 129 -75 100z"/>
<path d="M765 1230 c-11 -18 6 -91 27 -112 16 -16 22 -17 35 -7 16 14 14 50
-6 102 -11 27 -43 37 -56 17z"/>
<path d="M1292 1158 c-10 -37 2 -63 18 -38 5 8 10 23 10 33 0 9 0 20 1 24 0 4
-4 9 -10 11 -5 2 -14 -12 -19 -30z"/>
<path d="M1346 1159 c-3 -18 -2 -37 4 -43 10 -10 18 4 22 43 4 36 -18 36 -26
0z"/>
<path d="M1405 1179 c-10 -28 -10 -62 1 -66 15 -5 27 58 14 71 -6 6 -11 4 -15
-5z"/>
<path d="M1824 859 c-39 -43 -173 -52 -270 -18 -89 31 -104 33 -104 17 0 -17
55 -45 125 -64 60 -16 173 -18 212 -3 28 10 83 57 83 70 0 17 -30 16 -46 -2z"/>
<path d="M764 941 c-57 -25 -87 -106 -59 -164 41 -87 169 -87 210 -1 24 52 19
90 -18 130 -34 38 -91 53 -133 35z"/>
</g>
</svg>
